<svg width="16" height="13" viewBox="0 0 16 13" fill="none" xmlns="http://www.w3.org/2000/svg">
<path fill-rule="evenodd" clip-rule="evenodd" d="M0.834963 1.06505C1.84772 0.392196 3.18527 0 4.625 0C5.87577 0 7.04943 0.296004 8 0.814883C8.95057 0.296004 10.1242 0 11.375 0C12.8155 0 14.1523 0.392219 15.165 1.06505C15.3743 1.20406 15.5 1.43856 15.5 1.68975V11.4398C15.5 11.7161 15.348 11.9701 15.1044 12.1007C14.8608 12.2313 14.5652 12.2174 14.335 12.0644C13.5957 11.5733 12.555 11.25 11.375 11.25C10.1957 11.25 9.15428 11.5733 8.41504 12.0644C8.16357 12.2315 7.83643 12.2315 7.58496 12.0644C6.84572 11.5733 5.80427 11.25 4.625 11.25C3.44573 11.25 2.40428 11.5733 1.66504 12.0644C1.43483 12.2174 1.13916 12.2313 0.895584 12.1007C0.652006 11.9701 0.5 11.7161 0.5 11.4398V1.68975C0.5 1.43856 0.625744 1.20406 0.834963 1.06505ZM7.25 2.11462C6.54525 1.7375 5.63575 1.5 4.625 1.5C3.61425 1.5 2.70475 1.7375 2 2.11462V10.2196C2.79035 9.91685 3.68594 9.75 4.625 9.75C5.56406 9.75 6.45965 9.91685 7.25 10.2196V2.11462ZM8.75 10.2196C9.54035 9.91685 10.4359 9.75 11.375 9.75C12.3145 9.75 13.2099 9.91683 14 10.2195V2.1146C13.2954 1.73748 12.3863 1.5 11.375 1.5C10.3643 1.5 9.45475 1.7375 8.75 2.11462V10.2196Z" fill="#545C5D"/>
</svg>
