<svg width="16" height="20" viewBox="0 0 16 20" fill="none" xmlns="http://www.w3.org/2000/svg">
    <path d="M1 12.1019V3C1 1.89543 1.89543 1 3 1H12.5C13.6046 1 14.5 1.89543 14.5 3V12.1019C14.5 12.6731 14.2557 13.2172 13.8287 13.5967L9.07873 17.8189C8.32096 18.4925 7.17904 18.4925 6.42127 17.8189L1.67127 13.5967C1.2443 13.2172 1 12.6731 1 12.1019Z" stroke="#FF5A5A" stroke-width="1.5"/>
    <path fill-rule="evenodd" clip-rule="evenodd" d="M11.0894 6.95944C11.2358 7.10589 11.2358 7.34333 11.0894 7.48977L7.33938 11.2398C7.19294 11.3862 6.9555 11.3862 6.80905 11.2398L5.30905 9.73977C5.16261 9.59333 5.16261 9.35589 5.30905 9.20944C5.4555 9.063 5.69294 9.063 5.83938 9.20944L7.07422 10.4443L10.5591 6.95944C10.7055 6.813 10.9429 6.813 11.0894 6.95944Z" fill="#FF5A5A"/>
</svg>
