<svg width="20" height="20" viewBox="0 0 20 20" fill="none" xmlns="http://www.w3.org/2000/svg">
<path fill-rule="evenodd" clip-rule="evenodd" d="M10 16.6668C8.2319 16.6668 6.5362 15.9645 5.28596 14.7142C4.03572 13.464 3.33334 11.7683 3.33334 10.0002C3.33334 9.12468 3.50578 8.25778 3.84081 7.44894C4.17584 6.6401 4.6669 5.90518 5.28596 5.28612C5.90502 4.66706 6.63995 4.176 7.44878 3.84096C8.25762 3.50593 9.12453 3.3335 10 3.3335C10.8755 3.3335 11.7424 3.50593 12.5512 3.84096C13.3601 4.176 14.095 4.66706 14.7141 5.28612C15.3331 5.90518 15.8242 6.6401 16.1592 7.44894C16.4942 8.25778 16.6667 9.12468 16.6667 10.0002C16.6667 11.7683 15.9643 13.464 14.7141 14.7142C13.4638 15.9645 11.7681 16.6668 10 16.6668ZM4.10745 15.8927C5.67025 17.4555 7.78987 18.3335 10 18.3335C12.2101 18.3335 14.3298 17.4555 15.8926 15.8927C17.4554 14.3299 18.3333 12.2103 18.3333 10.0002C18.3333 8.90581 18.1178 7.82218 17.699 6.81113C17.2802 5.80009 16.6664 4.88143 15.8926 4.10761C15.1187 3.33379 14.2001 2.71996 13.189 2.30116C12.178 1.88238 11.0944 1.66683 10 1.66683C8.90566 1.66683 7.82202 1.88238 6.81098 2.30116C5.79993 2.71996 4.88127 3.33379 4.10745 4.10761C3.33363 4.88143 2.7198 5.80009 2.30101 6.81113C1.88222 7.82218 1.66667 8.90581 1.66667 10.0002C1.66667 12.2103 2.54465 14.3299 4.10745 15.8927ZM10 14.1668C10.4602 14.1668 10.8333 13.7937 10.8333 13.3335V10.0002C10.8333 9.53992 10.4602 9.16683 10 9.16683C9.53977 9.16683 9.16667 9.53992 9.16667 10.0002V13.3335C9.16667 13.7937 9.53977 14.1668 10 14.1668ZM9.16667 6.66683C9.16667 7.12707 9.53977 7.50016 10 7.50016H10.0083C10.4686 7.50016 10.8417 7.12707 10.8417 6.66683C10.8417 6.20659 10.4686 5.8335 10.0083 5.8335H10C9.53977 5.8335 9.16667 6.20659 9.16667 6.66683Z" fill="#5B40FF"/>
</svg>
