<svg width="16" height="16" viewBox="0 0 16 16" fill="none" xmlns="http://www.w3.org/2000/svg">
<path fill-rule="evenodd" clip-rule="evenodd" d="M4.00004 3.33333C3.64642 3.33333 3.30728 3.47381 3.05723 3.72386C2.80718 3.97391 2.66671 4.31305 2.66671 4.66667V11.3333C2.66671 11.687 2.80718 12.0261 3.05723 12.2761C3.30728 12.5262 3.64642 12.6667 4.00004 12.6667H6.66671C7.02033 12.6667 7.35947 12.5262 7.60952 12.2761C7.85956 12.0261 8.00004 11.687 8.00004 11.3333V10.6667C8.00004 10.2985 8.29852 10 8.66671 10C9.0349 10 9.33337 10.2985 9.33337 10.6667V11.3333C9.33337 12.0406 9.05242 12.7189 8.55233 13.219C8.05223 13.719 7.37395 14 6.66671 14H4.00004C3.2928 14 2.61452 13.719 2.11442 13.219C1.61433 12.7189 1.33337 12.0406 1.33337 11.3333V4.66667C1.33337 3.95942 1.61433 3.28115 2.11442 2.78105C2.61452 2.28095 3.2928 2 4.00004 2H6.66671C7.37395 2 8.05223 2.28095 8.55233 2.78105C9.05242 3.28115 9.33337 3.95942 9.33337 4.66667V5.33333C9.33337 5.70152 9.0349 6 8.66671 6C8.29852 6 8.00004 5.70152 8.00004 5.33333V4.66667C8.00004 4.31304 7.85956 3.97391 7.60952 3.72386C7.35947 3.47381 7.02033 3.33333 6.66671 3.33333H4.00004ZM10.862 4.86193C11.1223 4.60158 11.5444 4.60158 11.8048 4.86193L14.4714 7.5286C14.7318 7.78895 14.7318 8.21106 14.4714 8.47141L11.8048 11.1381C11.5444 11.3984 11.1223 11.3984 10.862 11.1381C10.6016 10.8777 10.6016 10.4556 10.862 10.1953L12.3906 8.66667H4.66671C4.29852 8.66667 4.00004 8.36819 4.00004 8C4.00004 7.63181 4.29852 7.33333 4.66671 7.33333H12.3906L10.862 5.80474C10.6016 5.54439 10.6016 5.12228 10.862 4.86193Z" fill="#FF3939"/>
</svg>
