<svg width="24" height="24" viewBox="0 0 24 24" fill="none" xmlns="http://www.w3.org/2000/svg">
<path d="M16 4.46776C17.4817 5.20411 18.5 6.73314 18.5 8.5C18.5 10.2669 17.4817 11.7959 16 12.5322M18 17.7664C19.5115 18.4503 20.8725 19.565 22 21M2 21C3.94649 18.5226 6.58918 17 9.5 17C12.4108 17 15.0535 18.5226 17 21M14 8.5C14 10.9853 11.9853 13 9.5 13C7.01472 13 5 10.9853 5 8.5C5 6.01472 7.01472 4 9.5 4C11.9853 4 14 6.01472 14 8.5Z" stroke="#90A6AB" stroke-width="2" stroke-linecap="round" stroke-linejoin="round"/>
</svg>
