<svg width="20" height="20" viewBox="0 0 20 20" fill="none" xmlns="http://www.w3.org/2000/svg">
<g clip-path="url(#clip0_251_581)">
<path d="M15.4443 3.54209C15.6343 4.00148 15.9989 4.36664 16.458 4.55728L18.0679 5.2241C18.5273 5.41441 18.8923 5.77942 19.0826 6.23885C19.2729 6.69828 19.2729 7.21448 19.0826 7.67391L18.4163 9.28262C18.2259 9.74225 18.2256 10.259 18.4168 10.7184L19.082 12.3266C19.1764 12.5542 19.225 12.7981 19.225 13.0444C19.225 13.2907 19.1765 13.5347 19.0823 13.7622C18.988 13.9898 18.8498 14.1966 18.6756 14.3707C18.5014 14.5449 18.2946 14.683 18.067 14.7772L16.4583 15.4436C15.9989 15.6335 15.6337 15.9981 15.4431 16.4572L14.7763 18.0671C14.586 18.5265 14.2209 18.8915 13.7615 19.0818C13.3021 19.2721 12.7859 19.2721 12.3264 19.0818L10.7177 18.4155C10.2583 18.2256 9.74228 18.226 9.28313 18.4165L7.67327 19.0824C7.21409 19.2723 6.69834 19.2721 6.23928 19.082C5.78023 18.8918 5.41542 18.5272 5.22499 18.0683L4.55796 16.458C4.36801 15.9986 4.0034 15.6334 3.5443 15.4428L1.93444 14.776C1.47521 14.5857 1.1103 14.221 0.919933 13.7618C0.729562 13.3026 0.729303 12.7867 0.919215 12.3273L1.58556 10.7186C1.7754 10.2592 1.77501 9.74314 1.58449 9.28398L0.919094 7.67297C0.824755 7.44542 0.776178 7.20151 0.776138 6.95518C0.776099 6.70885 0.824597 6.46493 0.918864 6.23735C1.01313 6.00977 1.15132 5.803 1.32553 5.62884C1.49973 5.45469 1.70655 5.31657 1.93416 5.22238L3.54287 4.55603C4.00186 4.36624 4.3668 4.0021 4.55758 3.54352L5.2244 1.93366C5.41471 1.47423 5.77972 1.10922 6.23915 0.918916C6.69857 0.728615 7.21478 0.728615 7.67421 0.918916L9.28292 1.58526C9.74236 1.7751 10.2584 1.77471 10.7175 1.58419L12.3281 0.919949C12.7874 0.729755 13.3035 0.729794 13.7629 0.920058C14.2222 1.11032 14.5872 1.47523 14.7775 1.93454L15.4445 3.54488L15.4443 3.54209Z" fill="#0788F5"/>
<path fill-rule="evenodd" clip-rule="evenodd" d="M13.9166 7.37876C14.0502 7.16891 14.0949 6.91458 14.041 6.67172C13.9871 6.42886 13.8389 6.21737 13.6291 6.08376C13.4192 5.95016 13.1649 5.90539 12.922 5.95931C12.6792 6.01323 12.4677 6.16141 12.3341 6.37126L8.66283 12.14L6.98283 10.04C6.82751 9.84574 6.60138 9.72113 6.35418 9.69358C6.10699 9.66604 5.85897 9.73782 5.6647 9.89314C5.47043 10.0485 5.34582 10.2746 5.31827 10.5218C5.29073 10.769 5.36251 11.017 5.51783 11.2113L8.01783 14.3363C8.111 14.4529 8.23066 14.5455 8.36687 14.6066C8.50308 14.6676 8.65189 14.6953 8.80094 14.6872C8.94998 14.6791 9.09494 14.6356 9.22376 14.5602C9.35258 14.4848 9.46154 14.3797 9.54158 14.2538L13.9166 7.37876V7.37876Z" fill="white"/>
</g>
<defs>
<clipPath id="clip0_251_581">
<rect width="20" height="20" fill="white"/>
</clipPath>
</defs>
</svg>
