<svg width="20" height="20" viewBox="0 0 20 20" fill="none" xmlns="http://www.w3.org/2000/svg">
<path d="M7.82926 16.1424L8.31629 17.2378C8.46108 17.5639 8.69736 17.8409 8.99648 18.0353C9.29561 18.2298 9.64472 18.3332 10.0015 18.3332C10.3582 18.3332 10.7074 18.2298 11.0065 18.0353C11.3056 17.8409 11.5419 17.5639 11.6867 17.2378L12.1737 16.1424C12.3471 15.7538 12.6387 15.4297 13.007 15.2165C13.3777 15.0027 13.8065 14.9116 14.232 14.9563L15.4237 15.0832C15.7784 15.1207 16.1364 15.0545 16.4543 14.8926C16.7721 14.7307 17.0362 14.4801 17.2144 14.1711C17.3929 13.8623 17.478 13.5084 17.4592 13.1522C17.4405 12.7961 17.3188 12.453 17.1089 12.1647L16.4033 11.1952C16.1521 10.8474 16.0179 10.4289 16.02 9.99984C16.0199 9.57199 16.1554 9.15513 16.407 8.8091L17.1126 7.83965C17.3225 7.5513 17.4442 7.20823 17.4629 6.85207C17.4817 6.4959 17.3966 6.14195 17.2181 5.83317C17.0399 5.5242 16.7758 5.27358 16.458 5.11169C16.1401 4.94981 15.7821 4.88361 15.4274 4.92113L14.2357 5.04799C13.8102 5.09268 13.3814 5.00161 13.0107 4.7878C12.6417 4.57338 12.35 4.24764 12.1774 3.85725L11.6867 2.76187C11.5419 2.43581 11.3056 2.15877 11.0065 1.96434C10.7074 1.76991 10.3582 1.66645 10.0015 1.6665C9.64472 1.66645 9.29561 1.76991 8.99648 1.96434C8.69736 2.15877 8.46108 2.43581 8.31629 2.76187L7.82926 3.85725C7.6567 4.24764 7.36498 4.57338 6.99592 4.7878C6.62527 5.00161 6.19648 5.09268 5.77092 5.04799L4.57555 4.92113C4.22083 4.88361 3.86284 4.94981 3.54498 5.11169C3.22713 5.27358 2.96307 5.5242 2.78481 5.83317C2.60633 6.14195 2.5213 6.4959 2.54004 6.85207C2.55877 7.20823 2.68047 7.5513 2.89037 7.83965L3.59592 8.8091C3.84754 9.15513 3.98304 9.57199 3.98296 9.99984C3.98304 10.4277 3.84754 10.8445 3.59592 11.1906L2.89037 12.16C2.68047 12.4484 2.55877 12.7914 2.54004 13.1476C2.5213 13.5038 2.60633 13.8577 2.78481 14.1665C2.96324 14.4753 3.22734 14.7258 3.54514 14.8877C3.86295 15.0495 4.22086 15.1158 4.57555 15.0785L5.76722 14.9517C6.19278 14.907 6.62157 14.9981 6.99222 15.2119C7.36266 15.4257 7.65573 15.7515 7.82926 16.1424Z" stroke="#00A3FF" stroke-width="2" stroke-linecap="round" stroke-linejoin="round"/>
<path d="M9.99999 12.4998C11.3807 12.4998 12.5 11.3805 12.5 9.99984C12.5 8.61913 11.3807 7.49984 9.99999 7.49984C8.61928 7.49984 7.49999 8.61913 7.49999 9.99984C7.49999 11.3805 8.61928 12.4998 9.99999 12.4998Z" stroke="#00A3FF" stroke-width="2" stroke-linecap="round" stroke-linejoin="round"/>
</svg>
