<svg width="20" height="20" viewBox="0 0 20 20" fill="none" xmlns="http://www.w3.org/2000/svg">
    <path fill-rule="evenodd" clip-rule="evenodd" d="M12.5335 3.37625C13.3751 3.71125 13.6326 4.87792 13.9768 5.25292C14.321 5.62792 14.8135 5.75542 15.086 5.75542C16.5343 5.75542 17.7085 6.92958 17.7085 8.37708V13.2063C17.7085 15.1479 16.1335 16.7229 14.1918 16.7229H5.80848C3.86598 16.7229 2.29181 15.1479 2.29181 13.2063V8.37708C2.29181 6.92958 3.46598 5.75542 4.91431 5.75542C5.18598 5.75542 5.67848 5.62792 6.02348 5.25292C6.36764 4.87792 6.62431 3.71125 7.46598 3.37625C8.30848 3.04125 11.6918 3.04125 12.5335 3.37625Z" stroke="white" stroke-width="1.5" stroke-linecap="round" stroke-linejoin="round"/>
    <path d="M14.5795 7.91667H14.587" stroke="white" stroke-width="2" stroke-linecap="round" stroke-linejoin="round"/>
    <path fill-rule="evenodd" clip-rule="evenodd" d="M12.649 10.9402C12.649 9.47685 11.4632 8.29102 9.99987 8.29102C8.53654 8.29102 7.35071 9.47685 7.35071 10.9402C7.35071 12.4035 8.53654 13.5893 9.99987 13.5893C11.4632 13.5893 12.649 12.4035 12.649 10.9402Z" stroke="white" stroke-width="1.5" stroke-linecap="round" stroke-linejoin="round"/>
</svg>
