<svg width="22" height="20" viewBox="0 0 22 20" fill="none" xmlns="http://www.w3.org/2000/svg">
<path fill-rule="evenodd" clip-rule="evenodd" d="M1.29286 0.292893C1.68339 -0.0976311 2.31655 -0.0976311 2.70708 0.292893L5.74807 3.33389C7.35572 2.45837 9.16141 1.99763 11.0006 2C15.9277 2.0003 20.0949 5.23878 21.497 9.70019C21.5584 9.89575 21.5583 10.1055 21.4966 10.301C20.8461 12.362 19.6073 14.1775 17.9453 15.5311L20.7071 18.2929C21.0976 18.6834 21.0976 19.3166 20.7071 19.7071C20.3166 20.0976 19.6834 20.0976 19.2929 19.7071L15.7057 16.1199L15.705 16.1192L12.414 12.8292L8.17095 8.58619C8.16196 8.57721 8.1531 8.56801 8.14453 8.55877L1.29286 1.70711C0.902339 1.31658 0.902339 0.683418 1.29286 0.292893ZM7.23709 4.82291L8.9684 6.55422C9.57866 6.19458 10.279 6.00025 10.9995 6.00025C12.0604 6.00025 13.0779 6.4217 13.8281 7.17189C14.5783 7.92209 14.9997 8.93957 14.9997 10.0005C14.9997 10.7209 14.8054 11.4213 14.4458 12.0316L16.5221 14.1079C17.8803 13.052 18.9114 11.6271 19.4887 9.99945C18.2521 6.50317 14.9173 4 11 4L10.9986 4C9.69495 3.99824 8.41188 4.28113 7.23709 4.82291ZM12.9317 10.5176C12.9765 10.3503 12.9997 10.1766 12.9997 10.0005C12.9997 9.47 12.789 8.96123 12.4139 8.58611C12.0387 8.21099 11.53 8.00025 10.9995 8.00025C10.8234 8.00025 10.6496 8.02347 10.4824 8.06823L12.9317 10.5176ZM3.62369 6.1738C4.06397 6.50723 4.15059 7.13444 3.81717 7.57472C3.25914 8.31158 2.81875 9.12975 2.51106 10C3.74749 13.4966 7.0824 16 11 16C11.5665 16.0004 12.1325 15.9477 12.6892 15.8424C13.2318 15.7398 13.7549 16.0965 13.8576 16.6392C13.9602 17.1819 13.6034 17.705 13.0608 17.8076C12.3811 17.9361 11.6909 18.0005 10.9992 18C6.07221 17.9997 1.90506 14.7612 0.502973 10.2998C0.441626 10.1046 0.441636 9.89529 0.503001 9.70009C0.8807 8.49868 1.46246 7.37127 2.22277 6.36728C2.5562 5.927 3.18341 5.84038 3.62369 6.1738Z" fill="#9398A0"/>
</svg>
