<svg width="16" height="16" viewBox="0 0 16 16" fill="none" xmlns="http://www.w3.org/2000/svg">
<path fill-rule="evenodd" clip-rule="evenodd" d="M11.75 2C11.5511 2 11.3603 2.07902 11.2197 2.21967C11.079 2.36032 11 2.55109 11 2.75V13.25C11 13.4489 11.079 13.6397 11.2197 13.7803C11.3603 13.921 11.5511 14 11.75 14H13.25C13.4489 14 13.6397 13.921 13.7803 13.7803C13.921 13.6397 14 13.4489 14 13.25V2.75C14 2.55109 13.921 2.36032 13.7803 2.21967C13.6397 2.07902 13.4489 2 13.25 2H11.75ZM10.25 14.9271C10.6614 15.295 11.1951 15.5 11.75 15.5H13.25C13.8467 15.5 14.419 15.2629 14.841 14.841C15.2629 14.419 15.5 13.8467 15.5 13.25V2.75C15.5 2.15326 15.2629 1.58097 14.841 1.15901C14.419 0.737053 13.8467 0.5 13.25 0.5H11.75C11.1533 0.5 10.581 0.737053 10.159 1.15901C9.73705 1.58097 9.5 2.15326 9.5 2.75V3.62868C9.26135 3.5443 9.00796 3.5 8.75 3.5H7.25C6.65326 3.5 6.08097 3.73705 5.65901 4.15901C5.23705 4.58097 5 5.15326 5 5.75V6.62868C4.76135 6.5443 4.50796 6.5 4.25 6.5H2.75C2.15326 6.5 1.58097 6.73705 1.15901 7.15901C0.737053 7.58097 0.5 8.15326 0.5 8.75V13.25C0.5 13.8467 0.737053 14.419 1.15901 14.841C1.58097 15.2629 2.15326 15.5 2.75 15.5H4.25C4.80487 15.5 5.33861 15.295 5.75 14.9271C6.16139 15.295 6.69513 15.5 7.25 15.5H8.75C9.30487 15.5 9.83861 15.295 10.25 14.9271ZM9.5 13.25V5.75C9.5 5.55109 9.42098 5.36032 9.28033 5.21967C9.13968 5.07902 8.94891 5 8.75 5H7.25C7.05109 5 6.86032 5.07902 6.71967 5.21967C6.57902 5.36032 6.5 5.55109 6.5 5.75V13.25C6.5 13.4489 6.57902 13.6397 6.71967 13.7803C6.86032 13.921 7.05109 14 7.25 14H8.75C8.94891 14 9.13968 13.921 9.28033 13.7803C9.42098 13.6397 9.5 13.4489 9.5 13.25ZM5 13.25V8.75C5 8.55109 4.92098 8.36032 4.78033 8.21967C4.63968 8.07902 4.44891 8 4.25 8H2.75C2.55109 8 2.36032 8.07902 2.21967 8.21967C2.07902 8.36032 2 8.55109 2 8.75V13.25C2 13.4489 2.07902 13.6397 2.21967 13.7803C2.36032 13.921 2.55109 14 2.75 14H4.25C4.44891 14 4.63968 13.921 4.78033 13.7803C4.92098 13.6397 5 13.4489 5 13.25Z" fill="#545C5D"/>
</svg>
