<svg width="20" height="20" viewBox="0 0 20 20" fill="none" xmlns="http://www.w3.org/2000/svg">
<path fill-rule="evenodd" clip-rule="evenodd" d="M6.30096 4.40426C5.39703 5.24534 4.79166 6.56573 4.79166 8.5C4.79166 10.4025 5.66254 12.5297 6.81613 14.1978C7.38913 15.0264 8.01408 15.7153 8.60214 16.1899C9.21146 16.6816 9.69595 16.875 10 16.875C10.304 16.875 10.7885 16.6816 11.3979 16.1899C11.9859 15.7153 12.6109 15.0264 13.1839 14.1978C14.3375 12.5297 15.2083 10.4025 15.2083 8.5C15.2083 6.56573 14.603 5.24534 13.699 4.40426C12.7868 3.55545 11.4953 3.125 10 3.125C8.50467 3.125 7.21319 3.55545 6.30096 4.40426ZM5.44946 3.48914C6.64848 2.37348 8.27367 1.875 10 1.875C11.7263 1.875 13.3515 2.37348 14.5505 3.48914C15.7579 4.61252 16.4583 6.29214 16.4583 8.5C16.4583 10.7396 15.4542 13.1125 14.212 14.9088C13.5871 15.8124 12.8839 16.5969 12.1829 17.1626C11.5031 17.7112 10.7376 18.125 10 18.125C9.26238 18.125 8.49687 17.7112 7.81712 17.1626C7.11612 16.5969 6.41294 15.8124 5.78803 14.9088C4.54579 13.1125 3.54166 10.7396 3.54166 8.5C3.54166 6.29214 4.24213 4.61252 5.44946 3.48914Z" fill="#536678"/>
<path fill-rule="evenodd" clip-rule="evenodd" d="M10 6.45825C8.96447 6.45825 8.125 7.29772 8.125 8.33325C8.125 9.36879 8.96447 10.2083 10 10.2083C11.0355 10.2083 11.875 9.36879 11.875 8.33325C11.875 7.29772 11.0355 6.45825 10 6.45825ZM6.875 8.33325C6.875 6.60736 8.27411 5.20825 10 5.20825C11.7259 5.20825 13.125 6.60736 13.125 8.33325C13.125 10.0591 11.7259 11.4583 10 11.4583C8.27411 11.4583 6.875 10.0591 6.875 8.33325Z" fill="#536678"/>
</svg>
