<svg width="14" height="15" viewBox="0 0 14 15" fill="none" xmlns="http://www.w3.org/2000/svg">
<path d="M2.91667 8.83371C1.8367 9.31013 1.16667 9.97402 1.16667 10.7083C1.16667 12.1581 3.77834 13.3333 7 13.3333C10.2217 13.3333 12.8333 12.1581 12.8333 10.7083C12.8333 9.97402 12.1633 9.31013 11.0833 8.83371M10.5 5.16667C10.5 7.53717 7.875 8.66667 7 10.4167C6.125 8.66667 3.5 7.53717 3.5 5.16667C3.5 3.23367 5.067 1.66667 7 1.66667C8.933 1.66667 10.5 3.23367 10.5 5.16667ZM7.58333 5.16667C7.58333 5.48884 7.32217 5.75 7 5.75C6.67783 5.75 6.41667 5.48884 6.41667 5.16667C6.41667 4.84451 6.67783 4.58334 7 4.58334C7.32217 4.58334 7.58333 4.84451 7.58333 5.16667Z" stroke="#92959D" stroke-linecap="round" stroke-linejoin="round"/>
</svg>
